<?xml version="1.0"?>
<svg xmlns="http://www.w3.org/2000/svg" xmlns:xlink="http://www.w3.org/1999/xlink" version="1.1" viewBox="0 0 224 224" width="32px" height="32px"><g fill="none" fill-rule="none" stroke="none" stroke-width="1" stroke-linecap="butt" stroke-linejoin="miter" stroke-miterlimit="10" stroke-dasharray="" stroke-dashoffset="0" font-family="none" font-weight="none" font-size="none" text-anchor="none" style="mix-blend-mode: normal"><path d="M0,224v-224h224v224z" fill="none" fill-rule="nonzero"/><g fill="#ffffff" fill-rule="evenodd"><g id="surface1"><path d="M112,28c-46.40234,0 -84,37.59766 -84,84c0,37.10547 24.0625,68.60547 57.44922,79.70703c4.21094,0.76563 5.74219,-1.80469 5.74219,-4.04687c0,-1.99609 -0.08203,-7.27344 -0.10937,-14.27344c-23.37891,5.0586 -28.30078,-11.26562 -28.30078,-11.26562c-3.82812,-9.70703 -9.32422,-12.30468 -9.32422,-12.30468c-7.62891,-5.19532 0.57422,-5.08594 0.57422,-5.08594c8.42188,0.60157 12.85157,8.64063 12.85157,8.64063c7.49218,12.85157 19.66015,9.13282 24.44531,7c0.76563,-5.4414 2.95313,-9.13281 5.33203,-11.23828c-18.64844,-2.10547 -38.25391,-9.32422 -38.25391,-41.50782c0,-9.1875 3.28125,-16.67968 8.64063,-22.55859c-0.84766,-2.10547 -3.74609,-10.66407 0.82032,-22.23047c0,0 7.05468,-2.24219 23.10547,8.61328c6.69922,-1.85937 13.89063,-2.78906 21.02734,-2.8164c7.13672,0.02734 14.32813,0.95703 21.02734,2.8164c16.05078,-10.85547 23.07813,-8.61328 23.07813,-8.61328c4.59375,11.5664 1.72266,20.125 0.84766,22.23047c5.38672,5.87891 8.61328,13.37109 8.61328,22.55859c0,32.26563 -19.63282,39.34766 -38.33594,41.45313c3.00782,2.57032 5.6875,7.71094 5.6875,15.53125c0,11.23828 -0.08203,20.28907 -0.08203,23.05078c0,2.24218 1.5039,4.86718 5.76953,4.04688c33.35938,-11.12891 57.39453,-42.60157 57.39453,-79.70703c0,-46.40234 -37.59766,-84 -84,-84z"/></g></g></g></svg>
