<?xml version="1.0"?>
<svg xmlns="http://www.w3.org/2000/svg" xmlns:xlink="http://www.w3.org/1999/xlink" version="1.1" viewBox="0 0 224 224" width="32px" height="32px"><g fill="none" fill-rule="nonzero" stroke="none" stroke-width="1" stroke-linecap="butt" stroke-linejoin="miter" stroke-miterlimit="10" stroke-dasharray="" stroke-dashoffset="0" font-family="none" font-weight="none" font-size="none" text-anchor="none" style="mix-blend-mode: normal"><path d="M0,224v-224h224v224z" fill="none"/><g fill="#ffffff"><g id="surface1"><path d="M206.88282,59.52734c-0.41016,-0.51953 -0.79297,-1.01172 -1.23047,-1.47656c-0.35547,-0.35547 -0.68359,-0.71094 -1.0664,-1.01172c-0.92969,-0.79297 -1.91407,-1.53125 -3.0625,-2.07813l-50.69532,-24.96485c-1.28516,-0.6289 -2.67968,-1.12109 -4.10156,-1.44922c-1.47657,-0.35547 -3.00782,-0.54687 -4.53907,-0.54687c-6.78125,0 -13.23437,3.52734 -16.78906,9.21484l-7.02735,11.26563l-16.16015,25.83985l-6.20703,-13.69922c-1.53125,-2.40625 -3.58203,-4.23828 -6.01562,-5.4414l-48.07032,-23.65235l-1.53125,-0.76562c-2.8164,-1.39453 -5.74218,-2.07812 -8.69531,-2.07812c-10.08984,0 -17.69141,7.90235 -17.69141,18.40235v105.24609c0,8.14843 5.11328,16.35156 12.46875,19.96093l43.58594,21.46485c3.03515,1.47656 6.17968,2.24218 9.35156,2.24218c10.58203,0 18.59375,-8.39453 18.59375,-19.52343v-24.11719l28,13.78125l51.92578,25.56641l2.57031,1.28516c3.5,1.72265 7.08203,2.59765 10.58203,2.59765c10.80078,0 18.92188,-8.23047 18.92188,-19.11328v-107.89844c0,-3.39062 -1.20312,-6.48047 -3.11718,-9.05078zM84,129.88282v46.59375c0,3.44531 -1.88672,5.52343 -4.59375,5.52343c-0.98437,0 -2.02343,-0.24609 -3.14453,-0.82031l-43.61328,-21.46485c-2.54297,-1.25781 -4.64844,-4.59375 -4.64844,-7.38281v-105.24609c0,-2.76172 1.53125,-4.40235 3.69141,-4.40235c0.76563,0 1.61328,0.19141 2.51563,0.62891l1.53125,0.76563c0,0 0,0 0.02734,0l48.04297,23.65234c0.08203,0.05469 0.13672,0.10938 0.19141,0.19141zM104.17969,139.80859l-6.17969,-3.0625v-37.89843l22.20313,48.83593zM109.15625,89.60547l21.41016,-34.26172l6.69922,-10.71875c1.06641,-1.66797 2.98047,-2.625 4.92188,-2.625c0.16407,0 0.30078,0.08203 0.46484,0.10938c0.6836,0.05469 1.36719,0.13672 1.9961,0.4375l50.69531,24.96484c0.21875,0.10938 0.21875,0.35547 0.32813,0.57422c0,0.10938 0.02734,0.21875 -0.02734,0.32813l-42,67.18359l-13.64453,21.84766zM196,176.47657c0,3.2539 -1.99609,5.11328 -4.92187,5.11328c-1.3125,0 -2.78906,-0.38281 -4.375,-1.17578l-13.23437,-6.50782l-20.83593,-10.25391l3.88281,-6.20703l39.48438,-63.19141z"/></g></g></g></svg>
