<?xml version="1.0"?>
<svg xmlns="http://www.w3.org/2000/svg" xmlns:xlink="http://www.w3.org/1999/xlink" version="1.1" viewBox="0 0 224 224" width="32px" height="32px"><g fill="none" fill-rule="nonzero" stroke="none" stroke-width="1" stroke-linecap="butt" stroke-linejoin="miter" stroke-miterlimit="10" stroke-dasharray="" stroke-dashoffset="0" font-family="none" font-weight="none" font-size="none" text-anchor="none" style="mix-blend-mode: normal"><path d="M0,224v-224h224v224z" fill="none"/><g fill="#ffffff"><g id="surface1"><path d="M52.5,35c-9.57031,0 -17.5,7.92969 -17.5,17.5v119c0,9.57032 7.92969,17.5 17.5,17.5h119c9.57032,0 17.5,-7.92968 17.5,-17.5v-119c0,-9.57031 -7.92968,-17.5 -17.5,-17.5zM52.5,49h119c1.99609,0 3.5,1.50391 3.5,3.5v119c0,1.99609 -1.50391,3.5 -3.5,3.5h-119c-1.99609,0 -3.5,-1.50391 -3.5,-3.5v-119c0,-1.99609 1.50391,-3.5 3.5,-3.5zM73.0625,61.03125c-6.64453,0 -12.03125,5.38672 -12.03125,12.03125c0,6.64453 5.38672,12.03125 12.03125,12.03125c6.64453,0 12.03125,-5.38672 12.03125,-12.03125c0,-6.64453 -5.38672,-12.03125 -12.03125,-12.03125zM136.28125,92.96875c-10.03516,0 -16.70703,5.49609 -19.46875,10.71875h-0.4375v-9.1875h-19.6875v66.5h20.5625v-32.8125c0,-8.66797 1.72266,-17.0625 12.46875,-17.0625c10.58203,0 10.71875,9.78907 10.71875,17.5v32.375h20.5625v-36.53125c0,-17.88281 -3.80078,-31.5 -24.71875,-31.5zM63,94.5v66.5h20.78125v-66.5z"/></g></g></g></svg>
